
<svg width="256px" height="256px" viewBox="0 0 256 256" version="1.1" xmlns="http://www.w3.org/2000/svg" xmlns:xlink="http://www.w3.org/1999/xlink">
    <!-- Generator: Sketch 59.1 (86144) - https://sketch.com -->
    <title>IvyLeaf_256x256</title>
    <desc>Created with Sketch.</desc>
    <g id="IvyLeaf_256x256" stroke="none" stroke-width="1" fill="none" fill-rule="evenodd">
        <path d="M254,128 C254,58.4111524 197.589721,2 128.001952,2 C58.4141819,2 2,58.4111524 2,128 C2,197.588848 58.4141819,254 128.001952,254 C197.589721,254 254,197.588848 254,128" id="Fill-1-Copy" stroke="#353535" stroke-width="4" fill="none"></path>
        <g id="Logo-/-Icon" transform="translate(2.000000, 2.000000)">
            
            <g id="Leaf-Color">
                <use fill="grey" fill-opacity="1" filter="url(#filter-2)" xlink:href="#path-1"></use>
                <use fill="#353535" fill-rule="evenodd" xlink:href="#path-1"></use>
            </g>
            <path d="M213.230769,196.535094 C208.285741,169.137991 193.112169,144.770301 172.993569,136.787916 C199.469507,109.476478 200.823456,64.9776018 199.60957,43.3356039 C198.854782,34.2162158 197.158455,32.9234588 190.159158,32.892308 C170.752549,33.5425803 131.748688,40.9837207 103.074527,69.1206543 C94.4995137,56.1930845 70.4241128,39.4145006 42.0612051,44.0364962 C29.5293909,77.53915 44.4228354,111.041804 47.3369394,111.041804 C38.7619259,114.347679 30.5176184,120.285795 23.2615385,129.525892 C51.6244461,183.989121 79.3298323,161.875968 105.381688,151.64294 C98.6352847,193.844446 98.3785012,210.868342 143.97314,234.492308 C152.874969,221.288275 152.874969,204.790048 150.898514,199.506099 C162.43821,207.426182 190.143596,210.397187 213.230769,196.535094" id="Leaf-Color" fill="#1e1e1e"></path>
        </g>
    </g>
</svg>